HIERARCHY
ROOT Hips
{
	OFFSET 103.898903 91.744438 377.834412
	CHANNELS 6 Xposition Yposition Zposition Zrotation Yrotation Xrotation 
	JOINT LeftUpLeg
	{
		OFFSET 0.103458 1.857842 10.548504
		CHANNELS 3 Xrotation Yrotation Zrotation
		JOINT LeftLeg
		{
			OFFSET 43.500000 -0.000038 0.000000
			CHANNELS 3 Xrotation Yrotation Zrotation
			JOINT LeftFoot
			{
				OFFSET 42.372200 0.000008 0.000004
				CHANNELS 3 Xrotation Yrotation Zrotation
				JOINT LeftToe
				{
					OFFSET 17.299992 -0.000003 -0.000013
					CHANNELS 3 Xrotation Yrotation Zrotation
					End Site
					{
						OFFSET 0.000000 0.000000 0.000000
					}
				}
			}
		}
	}
	JOINT RightUpLeg
	{
		OFFSET 0.103456 1.857816 -10.548503
		CHANNELS 3 Xrotation Yrotation Zrotation
		JOINT RightLeg
		{
			OFFSET 43.500042 -0.000023 0.000008
			CHANNELS 3 Xrotation Yrotation Zrotation
			JOINT RightFoot
			{
				OFFSET 42.372265 -0.000008 0.000010
				CHANNELS 3 Xrotation Yrotation Zrotation
				JOINT RightToe
				{
					OFFSET 17.300022 0.000005 0.000000
					CHANNELS 3 Xrotation Yrotation Zrotation
					End Site
					{
						OFFSET 0.000000 0.000000 0.000000
					}
				}
			}
		}
	}
	JOINT Spine
	{
		OFFSET 6.901966 -2.603735 -0.000002
		CHANNELS 3 Xrotation Yrotation Zrotation
		JOINT Spine1
		{
			OFFSET 12.588103 0.000016 0.000000
			CHANNELS 3 Xrotation Yrotation Zrotation
			JOINT Spine2
			{
				OFFSET 12.343200 0.000002 -0.000002
				CHANNELS 3 Xrotation Yrotation Zrotation
				JOINT Neck
				{
					OFFSET 25.832891 -0.000029 0.000006
					CHANNELS 3 Xrotation Yrotation Zrotation
					JOINT Head
					{
						OFFSET 11.766613 0.000029 -0.000002
						CHANNELS 3 Xrotation Yrotation Zrotation
						End Site
						{
							OFFSET 0.000000 0.000000 0.000000
						}
					}
				}
				JOINT LeftShoulder
				{
					OFFSET 19.745903 -1.480385 6.000109
					CHANNELS 3 Xrotation Yrotation Zrotation
					JOINT LeftArm
					{
						OFFSET 11.284124 -0.000024 -0.000022
						CHANNELS 3 Xrotation Yrotation Zrotation
						JOINT LeftForeArm
						{
							OFFSET 33.000057 0.000000 0.000033
							CHANNELS 3 Xrotation Yrotation Zrotation
							JOINT LeftHand
							{
								OFFSET 25.199997 0.000045 -0.000004
								CHANNELS 3 Xrotation Yrotation Zrotation
								End Site
								{
									OFFSET 0.000000 0.000000 0.000000
								}
							}
						}
					}
				}
				JOINT RightShoulder
				{
					OFFSET 19.746105 -1.480396 -6.000069
					CHANNELS 3 Xrotation Yrotation Zrotation
					JOINT RightArm
					{
						OFFSET 11.284142 -0.000028 -0.000010
						CHANNELS 3 Xrotation Yrotation Zrotation
						JOINT RightForeArm
						{
							OFFSET 33.000084 0.000033 0.000011
							CHANNELS 3 Xrotation Yrotation Zrotation
							JOINT RightHand
							{
								OFFSET 25.199783 0.000119 0.000426
								CHANNELS 3 Xrotation Yrotation Zrotation
								End Site
								{
									OFFSET 0.000000 0.000000 0.000000
								}
							}
						}
					}
				}
			}
		}
	}
}
MOTION
Frames: 8
Frame Time: 0.033333
191.907593 89.283257 464.954315 96.146503 0.627176 -127.008092 155.847869 -10.580989 166.134899 -37.662927 0.688956 -4.414634 79.869814 2.287618 -3.305016 21.454560 0.003102 0.000016 -173.257256 -0.662596 -174.990867 -16.743066 3.791387 5.791175 87.644837 -2.919272 6.322528 21.454551 -0.003093 -0.000001 8.145573 2.129123 0.019114 6.285476 4.254090 0.153577 5.966411 4.254804 0.127830 18.908814 1.699110 18.250011 -17.936674 -15.279707 25.005842 169.504313 -73.871009 9.360766 -12.092519 58.109918 37.789753 -37.447397 -21.361702 1.833109 -1.572890 -27.068420 10.534853 -156.178491 80.897286 25.715066 -20.053835 -52.025715 -26.866406 -37.176399 18.648054 -1.623047 3.065782 21.061290 2.153851 
193.058304 89.076729 462.906189 95.900432 0.881228 -125.838586 155.215366 -10.023294 163.111310 -30.832741 1.212058 -5.319809 78.097974 3.075658 -2.570067 21.454560 0.003105 0.000017 -171.263141 -0.675704 -174.726949 -15.287290 3.771095 6.185047 87.782923 -3.074653 7.030130 21.454546 -0.003088 0.000002 8.080261 2.091070 0.145020 6.159025 4.171504 0.400998 5.840032 4.173722 0.375752 18.920939 1.361654 18.260779 -18.435963 -15.230067 25.090319 170.114180 -73.659581 8.743399 -11.426952 58.109535 38.296987 -36.271163 -21.333000 1.801629 -0.601308 -27.450501 9.587639 -156.554930 81.119732 25.329019 -20.902042 -51.354929 -25.803041 -36.901115 18.780095 -1.624804 3.354851 21.664260 2.745688 
194.069595 89.014343 460.772705 95.362807 0.816635 -124.871308 155.245241 -9.022905 161.360760 -24.731075 1.003322 -4.127415 75.487094 2.750034 -0.592427 21.454560 0.003098 0.000015 -169.120825 -0.136901 -174.182077 -13.645427 3.758330 6.306583 87.581665 -3.043982 7.671197 21.454553 -0.003099 -0.000001 8.069829 1.934712 0.236436 6.139965 3.854245 0.575129 5.821091 3.857510 0.551801 18.487437 1.383726 18.354272 -18.535407 -15.173421 25.174978 171.115500 -73.833320 7.711910 -11.141154 58.195807 38.373328 -35.142280 -20.980108 1.751302 0.074714 -27.636438 8.775969 -157.248891 81.214542 24.623681 -21.842998 -50.729663 -24.709866 -36.448242 18.694521 -1.608182 3.234149 22.149429 2.936894 
195.020401 88.812317 458.461090 94.923401 0.766481 -123.893402 155.039680 -7.648694 162.981236 -21.236293 0.681381 -3.719745 72.723783 2.593304 -0.222663 21.454560 0.003111 0.000018 -167.435940 0.422196 -173.484483 -13.221662 3.638087 6.231876 87.644598 -2.846687 8.582933 21.454550 -0.003088 0.000003 8.067733 1.770276 0.302487 6.136272 3.522124 0.698402 5.817538 3.526141 0.677087 18.022593 1.568161 18.488467 -18.709398 -15.139369 25.322264 171.285735 -74.079624 7.529585 -10.488246 58.171287 38.678333 -34.115849 -20.616970 1.703725 0.144183 -27.025933 8.799376 -158.548635 81.240763 23.305545 -22.201124 -50.511909 -24.156127 -35.863841 19.104094 -1.620583 3.388341 22.220221 3.933196 
195.834305 88.675980 456.024689 94.249371 0.354931 -122.752993 155.251074 -5.450001 165.412360 -20.827528 0.785117 -2.574390 71.048529 2.562957 2.171766 21.454553 0.003117 0.000020 -165.782297 1.524399 -172.907564 -13.305080 3.646926 6.162098 87.337656 -2.552280 9.940630 21.454550 -0.003095 0.000001 8.089107 1.522136 0.327833 6.177230 3.024701 0.736398 5.858688 3.028969 0.718086 18.005731 1.636038 18.509591 -19.365533 -15.087671 25.438300 169.966799 -74.022489 8.882002 -9.240301 57.698030 39.890716 -33.173095 -20.338451 1.664331 0.774862 -25.989163 8.049867 -159.097003 81.105648 22.751656 -21.964813 -50.642824 -23.581636 -35.472126 19.040170 -1.607118 3.872885 22.225815 4.253494 
196.497101 88.548058 453.428314 93.487709 0.057054 -121.482619 154.809953 -3.311803 170.541231 -24.062579 0.151994 -4.578882 72.665884 4.259385 3.169433 21.454558 0.003116 0.000019 -164.934411 2.747797 -172.813061 -14.777408 3.712634 6.402218 86.729018 -2.386789 11.558440 21.454557 -0.003098 0.000001 8.072234 1.268889 0.338228 6.141290 2.518156 0.743220 5.822858 2.522458 0.727982 18.003218 1.660397 18.486090 -19.946763 -14.831839 25.415853 169.485707 -74.047221 9.373669 -8.288996 57.104121 41.066611 -32.438798 -19.836341 1.615857 2.081465 -23.589047 7.094891 -159.739396 81.277667 22.097755 -20.723231 -51.457754 -23.817151 -35.504542 19.113212 -1.612605 4.702504 22.291321 5.196390 
197.129898 88.431297 450.443390 93.003674 -0.580269 -119.946195 154.794230 -1.515105 173.752363 -27.936382 -0.345004 -5.697046 75.419557 4.557434 1.788064 21.454557 0.003098 0.000016 -164.202351 3.983201 -172.493887 -17.680445 3.761010 6.755116 85.269038 -2.182512 13.211619 21.454557 -0.003092 -0.000003 8.174022 1.040540 0.324733 6.342594 2.061829 0.705904 6.024284 2.065916 0.693430 17.592137 1.709428 18.484117 -20.141290 -14.476282 25.301334 169.937183 -74.510131 8.895585 -8.166799 56.937410 41.681192 -31.726642 -19.484472 1.577979 2.710831 -20.839638 6.689616 -161.168190 81.449439 20.647126 -18.588532 -52.742516 -24.591454 -35.793197 19.539525 -1.647046 5.101322 22.434390 6.030326 
197.714203 88.596992 447.291107 92.397481 -1.204241 -118.661997 156.162317 -0.123901 172.444764 -29.400826 -0.322047 -4.449554 76.718645 4.087216 3.411742 21.454558 0.003089 0.000014 -164.200671 5.396896 -171.682952 -21.578036 3.547536 6.888009 82.187926 -1.750614 14.073023 21.454553 -0.003092 0.000001 8.236363 0.832777 0.384763 6.466376 1.642859 0.815361 6.148176 1.647624 0.805429 17.258500 1.485267 18.374399 -20.095690 -14.026621 24.997321 170.647277 -74.737952 8.161442 -7.919079 56.842774 42.330825 -31.235705 -19.140126 1.545614 3.136500 -18.225784 6.385289 -161.385486 81.689459 20.424079 -15.881266 -54.031079 -26.433768 -36.087554 19.528163 -1.653393 5.560430 22.229138 6.977902 
